<svg xmlns="http://www.w3.org/2000/svg" viewBox="0 0 420 280" role="img" aria-label="Собака Грей"><defs><linearGradient id="coat" x1="0" x2="1"><stop stop-color="#5f6875"/><stop offset="1" stop-color="#929aa5"/></linearGradient><filter id="s" x="-20%" y="-20%" width="140%" height="140%"><feDropShadow dx="0" dy="14" stdDeviation="12" flood-color="#04101f" flood-opacity=".45"/></filter></defs><g filter="url(#s)"><path d="M107 198c22 38 167 40 206 8 26-22 20-79-9-106-38-36-129-40-172-9-38 28-48 68-25 107Z" fill="url(#coat)"/><path d="M125 101 91 38l70 29m142 32 32-61-69 30" fill="#5b6572"/><path d="M178 78c34 29 44 83 35 151" fill="none" stroke="#f3f7fb" stroke-width="26" stroke-linecap="round"/><path d="M178 151c20 16 49 17 70 0 6 28-11 53-36 53s-42-24-34-53Z" fill="#f7f8fa"/><ellipse cx="162" cy="126" rx="16" ry="19" fill="#79f0ff"/><ellipse cx="254" cy="126" rx="16" ry="19" fill="#79f0ff"/><circle cx="166" cy="126" r="7" fill="#071327"/><circle cx="250" cy="126" r="7" fill="#071327"/><path d="M198 149h28l-14 14Z" fill="#101722"/><path d="M212 163c-7 14-24 16-35 7m35-7c7 14 25 16 36 7" fill="none" stroke="#243044" stroke-width="7" stroke-linecap="round"/><path d="M91 210c-19 18-43 18-61 2m256 2c18 17 46 19 67 5" fill="none" stroke="#66707d" stroke-width="19" stroke-linecap="round"/><path d="M311 178c37 2 58-11 72-36" fill="none" stroke="#79828d" stroke-width="17" stroke-linecap="round"/><path d="M167 205h94" stroke="#42e6ff" stroke-width="14" stroke-linecap="round"/><circle cx="216" cy="217" r="16" fill="#ffca55"/><path d="M209 217h14" stroke="#30220a" stroke-width="5" stroke-linecap="round"/></g></svg>